<svg width="275" height="75" viewBox="0 0 275 75" fill="none" xmlns="http://www.w3.org/2000/svg">
<path d="M84.456 64V17.3736H103.639C107.769 17.3736 111.299 18.0397 114.23 19.3718C117.206 20.704 119.492 22.6135 121.091 25.1002C122.69 27.587 123.489 30.54 123.489 33.9593C123.489 37.3785 122.69 40.3315 121.091 42.8183C119.492 45.2606 117.206 47.1479 114.23 48.4801C111.299 49.7678 107.769 50.4117 103.639 50.4117H89.2519L93.1152 46.4818V64H84.456ZM114.963 64L103.173 47.0813H112.432L124.288 64H114.963ZM93.1152 47.4143L89.2519 43.2845H103.24C107.059 43.2845 109.923 42.463 111.832 40.82C113.786 39.177 114.763 36.8901 114.763 33.9593C114.763 30.984 113.786 28.6971 111.832 27.0985C109.923 25.4999 107.059 24.7006 103.24 24.7006H89.2519L93.1152 20.4376V47.4143ZM132.086 64V28.4307H140.412V64H132.086ZM136.282 22.5691C134.728 22.5691 133.44 22.0806 132.419 21.1037C131.442 20.1267 130.953 18.95 130.953 17.5734C130.953 16.1524 131.442 14.9756 132.419 14.0431C133.44 13.0662 134.728 12.5777 136.282 12.5777C137.836 12.5777 139.102 13.044 140.079 13.9765C141.1 14.8646 141.611 15.997 141.611 17.3736C141.611 18.839 141.122 20.0823 140.145 21.1037C139.168 22.0806 137.881 22.5691 136.282 22.5691ZM166.101 64.4663C162.682 64.4663 159.596 63.7114 156.843 62.2016C154.134 60.6473 152.002 58.5158 150.448 55.8071C148.894 53.0983 148.117 49.9011 148.117 46.2153C148.117 42.5296 148.894 39.3324 150.448 36.6236C152.002 33.9149 154.134 31.8056 156.843 30.2957C159.596 28.7859 162.682 28.031 166.101 28.031C169.076 28.031 171.741 28.6971 174.094 30.0293C176.448 31.3171 178.313 33.2932 179.69 35.9575C181.066 38.6219 181.754 42.0412 181.754 46.2153C181.754 50.3451 181.088 53.7644 179.756 56.4732C178.424 59.1375 176.581 61.1358 174.228 62.468C171.874 63.8002 169.165 64.4663 166.101 64.4663ZM167.1 57.3391C169.099 57.3391 170.875 56.895 172.429 56.0069C174.028 55.1188 175.293 53.831 176.226 52.1436C177.203 50.4561 177.691 48.4801 177.691 46.2153C177.691 43.9062 177.203 41.9302 176.226 40.2871C175.293 38.5997 174.028 37.3119 172.429 36.4238C170.875 35.5357 169.099 35.0916 167.1 35.0916C165.102 35.0916 163.304 35.5357 161.705 36.4238C160.151 37.3119 158.885 38.5997 157.908 40.2871C156.976 41.9302 156.51 43.9062 156.51 46.2153C156.51 48.4801 156.976 50.4561 157.908 52.1436C158.885 53.831 160.151 55.1188 161.705 56.0069C163.304 56.895 165.102 57.3391 167.1 57.3391ZM177.891 64V55.6072L178.224 46.1487L177.558 36.6902V14.576H185.818V64H177.891ZM213.203 64.4663C209.251 64.4663 205.787 63.6892 202.812 62.1349C199.881 60.5363 197.594 58.3604 195.951 55.6072C194.353 52.8541 193.553 49.7234 193.553 46.2153C193.553 42.6629 194.331 39.5322 195.885 36.8235C197.483 34.0703 199.659 31.9166 202.412 30.3624C205.21 28.8081 208.385 28.031 211.938 28.031C215.401 28.031 218.487 28.7859 221.196 30.2957C223.905 31.8056 226.036 33.9371 227.591 36.6902C229.145 39.4434 229.922 42.6851 229.922 46.4152C229.922 46.7704 229.9 47.1701 229.855 47.6141C229.855 48.0582 229.833 48.4801 229.789 48.8797H200.148V43.3512H225.393L222.129 45.083C222.173 43.0403 221.751 41.2419 220.863 39.6876C219.975 38.1334 218.754 36.9123 217.2 36.0241C215.69 35.136 213.936 34.692 211.938 34.692C209.895 34.692 208.096 35.136 206.542 36.0241C205.032 36.9123 203.833 38.1556 202.945 39.7543C202.102 41.3085 201.68 43.1513 201.68 45.2828V46.615C201.68 48.7465 202.168 50.6338 203.145 52.2768C204.122 53.9198 205.499 55.1854 207.275 56.0735C209.051 56.9616 211.094 57.4057 213.403 57.4057C215.401 57.4057 217.2 57.0948 218.798 56.4732C220.397 55.8515 221.818 54.8745 223.061 53.5424L227.524 58.6713C225.925 60.5363 223.905 61.9795 221.463 63.0009C219.065 63.9778 216.312 64.4663 213.203 64.4663ZM253.614 64.4663C249.973 64.4663 246.731 63.6892 243.889 62.1349C241.047 60.5363 238.804 58.3604 237.161 55.6072C235.518 52.8541 234.697 49.7234 234.697 46.2153C234.697 42.6629 235.518 39.5322 237.161 36.8235C238.804 34.0703 241.047 31.9166 243.889 30.3624C246.731 28.8081 249.973 28.031 253.614 28.031C257.3 28.031 260.563 28.8081 263.405 30.3624C266.292 31.9166 268.534 34.0481 270.133 36.7568C271.776 39.4656 272.597 42.6185 272.597 46.2153C272.597 49.7234 271.776 52.8541 270.133 55.6072C268.534 58.3604 266.292 60.5363 263.405 62.1349C260.563 63.6892 257.3 64.4663 253.614 64.4663ZM253.614 57.3391C255.657 57.3391 257.477 56.895 259.076 56.0069C260.674 55.1188 261.918 53.831 262.806 52.1436C263.738 50.4561 264.205 48.4801 264.205 46.2153C264.205 43.9062 263.738 41.9302 262.806 40.2871C261.918 38.5997 260.674 37.3119 259.076 36.4238C257.477 35.5357 255.679 35.0916 253.68 35.0916C251.638 35.0916 249.817 35.5357 248.219 36.4238C246.664 37.3119 245.421 38.5997 244.488 40.2871C243.556 41.9302 243.09 43.9062 243.09 46.2153C243.09 48.4801 243.556 50.4561 244.488 52.1436C245.421 53.831 246.664 55.1188 248.219 56.0069C249.817 56.895 251.616 57.3391 253.614 57.3391Z" fill="#080808"/>
<rect x="24" y="16" width="24" height="24" fill="#080808"/>
<rect x="48" y="40" width="24" height="24" fill="#080808"/>
<rect y="40" width="24" height="24" fill="#080808"/>
</svg>
