<svg width="130" height="33" viewBox="0 0 130 33" fill="none" xmlns="http://www.w3.org/2000/svg">
<rect x="9.77441" y="6.72534" width="9.77467" height="9.77467" fill="#080808"/>
<rect x="19.5488" y="16.5" width="9.77467" height="9.77467" fill="#080808"/>
<rect y="16.5" width="9.77467" height="9.77467" fill="#080808"/>
<path d="M44.663 27V7.4H52.727C54.463 7.4 55.947 7.68 57.179 8.24C58.4297 8.8 59.391 9.60267 60.063 10.648C60.735 11.6933 61.071 12.9347 61.071 14.372C61.071 15.8093 60.735 17.0507 60.063 18.096C59.391 19.1227 58.4297 19.916 57.179 20.476C55.947 21.0173 54.463 21.288 52.727 21.288H46.679L48.303 19.636V27H44.663ZM57.487 27L52.531 19.888H56.423L61.407 27H57.487ZM48.303 20.028L46.679 18.292H52.559C54.1644 18.292 55.3684 17.9467 56.171 17.256C56.9924 16.5653 57.403 15.604 57.403 14.372C57.403 13.1213 56.9924 12.16 56.171 11.488C55.3684 10.816 54.1644 10.48 52.559 10.48H46.679L48.303 8.688V20.028ZM64.672 27V12.048H68.172V27H64.672ZM66.436 9.584C65.7827 9.584 65.2414 9.37867 64.812 8.968C64.4014 8.55733 64.196 8.06267 64.196 7.484C64.196 6.88667 64.4014 6.392 64.812 6C65.2414 5.58933 65.7827 5.384 66.436 5.384C67.0894 5.384 67.6214 5.58 68.032 5.972C68.4614 6.34533 68.676 6.82133 68.676 7.4C68.676 8.016 68.4707 8.53867 68.06 8.968C67.6494 9.37867 67.108 9.584 66.436 9.584ZM78.9583 27.196C77.521 27.196 76.2237 26.8787 75.0663 26.244C73.9277 25.5907 73.0317 24.6947 72.3783 23.556C71.725 22.4173 71.3983 21.0733 71.3983 19.524C71.3983 17.9747 71.725 16.6307 72.3783 15.492C73.0317 14.3533 73.9277 13.4667 75.0663 12.832C76.2237 12.1973 77.521 11.88 78.9583 11.88C80.209 11.88 81.329 12.16 82.3183 12.72C83.3077 13.2613 84.0917 14.092 84.6703 15.212C85.249 16.332 85.5383 17.7693 85.5383 19.524C85.5383 21.26 85.2583 22.6973 84.6983 23.836C84.1383 24.956 83.3637 25.796 82.3743 26.356C81.385 26.916 80.2463 27.196 78.9583 27.196ZM79.3783 24.2C80.2183 24.2 80.965 24.0133 81.6183 23.64C82.2903 23.2667 82.8223 22.7253 83.2143 22.016C83.625 21.3067 83.8303 20.476 83.8303 19.524C83.8303 18.5533 83.625 17.7227 83.2143 17.032C82.8223 16.3227 82.2903 15.7813 81.6183 15.408C80.965 15.0347 80.2183 14.848 79.3783 14.848C78.5383 14.848 77.7823 15.0347 77.1103 15.408C76.457 15.7813 75.925 16.3227 75.5143 17.032C75.1223 17.7227 74.9263 18.5533 74.9263 19.524C74.9263 20.476 75.1223 21.3067 75.5143 22.016C75.925 22.7253 76.457 23.2667 77.1103 23.64C77.7823 24.0133 78.5383 24.2 79.3783 24.2ZM83.9143 27V23.472L84.0543 19.496L83.7743 15.52V6.224H87.2463V27H83.9143ZM98.7455 27.196C97.0842 27.196 95.6282 26.8693 94.3775 26.216C93.1455 25.544 92.1842 24.6293 91.4935 23.472C90.8215 22.3147 90.4855 20.9987 90.4855 19.524C90.4855 18.0307 90.8122 16.7147 91.4655 15.576C92.1375 14.4187 93.0522 13.5133 94.2095 12.86C95.3855 12.2067 96.7202 11.88 98.2135 11.88C99.6695 11.88 100.967 12.1973 102.106 12.832C103.244 13.4667 104.14 14.3627 104.794 15.52C105.447 16.6773 105.774 18.04 105.774 19.608C105.774 19.7573 105.764 19.9253 105.746 20.112C105.746 20.2987 105.736 20.476 105.718 20.644H93.2575V18.32H103.87L102.498 19.048C102.516 18.1893 102.339 17.4333 101.966 16.78C101.592 16.1267 101.079 15.6133 100.426 15.24C99.7909 14.8667 99.0535 14.68 98.2135 14.68C97.3549 14.68 96.5989 14.8667 95.9455 15.24C95.3109 15.6133 94.8069 16.136 94.4335 16.808C94.0789 17.4613 93.9015 18.236 93.9015 19.132V19.692C93.9015 20.588 94.1069 21.3813 94.5175 22.072C94.9282 22.7627 95.5069 23.2947 96.2535 23.668C97.0002 24.0413 97.8589 24.228 98.8295 24.228C99.6695 24.228 100.426 24.0973 101.098 23.836C101.77 23.5747 102.367 23.164 102.89 22.604L104.766 24.76C104.094 25.544 103.244 26.1507 102.218 26.58C101.21 26.9907 100.052 27.196 98.7455 27.196ZM115.72 27.196C114.189 27.196 112.827 26.8693 111.632 26.216C110.437 25.544 109.495 24.6293 108.804 23.472C108.113 22.3147 107.768 20.9987 107.768 19.524C107.768 18.0307 108.113 16.7147 108.804 15.576C109.495 14.4187 110.437 13.5133 111.632 12.86C112.827 12.2067 114.189 11.88 115.72 11.88C117.269 11.88 118.641 12.2067 119.836 12.86C121.049 13.5133 121.992 14.4093 122.664 15.548C123.355 16.6867 123.7 18.012 123.7 19.524C123.7 20.9987 123.355 22.3147 122.664 23.472C121.992 24.6293 121.049 25.544 119.836 26.216C118.641 26.8693 117.269 27.196 115.72 27.196ZM115.72 24.2C116.579 24.2 117.344 24.0133 118.016 23.64C118.688 23.2667 119.211 22.7253 119.584 22.016C119.976 21.3067 120.172 20.476 120.172 19.524C120.172 18.5533 119.976 17.7227 119.584 17.032C119.211 16.3227 118.688 15.7813 118.016 15.408C117.344 15.0347 116.588 14.848 115.748 14.848C114.889 14.848 114.124 15.0347 113.452 15.408C112.799 15.7813 112.276 16.3227 111.884 17.032C111.492 17.7227 111.296 18.5533 111.296 19.524C111.296 20.476 111.492 21.3067 111.884 22.016C112.276 22.7253 112.799 23.2667 113.452 23.64C114.124 24.0133 114.88 24.2 115.72 24.2Z" fill="#080808"/>
</svg>
